<svg width="33" height="32" viewBox="0 0 33 32" fill="none" xmlns="http://www.w3.org/2000/svg">
<path d="M1.10069 13.6883L16.3007 0.177164C16.4144 0.0761274 16.5856 0.0761271 16.6993 0.177163L31.8993 13.6883C31.9634 13.7452 32 13.8268 32 13.9125V30.7C32 30.8657 31.8657 31 31.7 31H21.9667C21.801 31 21.6667 30.8657 21.6667 30.7V20.7909C21.6667 20.7114 21.6351 20.6351 21.5788 20.5788L20.0323 19.0323C19.9761 18.9761 19.8997 18.9444 19.8202 18.9444H13.1798C13.1003 18.9444 13.0239 18.9761 12.9677 19.0323L11.4212 20.5788C11.3649 20.6351 11.3333 20.7114 11.3333 20.7909V30.7C11.3333 30.8657 11.199 31 11.0333 31H1.3C1.13431 31 1 30.8657 1 30.7V13.9125C1 13.8268 1.03664 13.7452 1.10069 13.6883Z" fill="black" stroke="black" stroke-width="0.08"/>
<path d="M21.6656 20.5663C21.6667 20.6215 21.6191 20.6667 21.5639 20.6667C18.4567 20.6667 19.3227 20.6667 16.4999 20.6667C13.6771 20.6667 14.5432 20.6667 11.4359 20.6667C11.3807 20.6667 11.3332 20.6215 11.3342 20.5663C11.3877 17.7592 13.68 15.5 16.4999 15.5C19.3199 15.5 21.6121 17.7592 21.6656 20.5663Z" fill="white"/>
</svg>

