<svg width="56" height="51" viewBox="0 0 56 51" fill="none" xmlns="http://www.w3.org/2000/svg">
<path d="M6.91234 36.02V36.155C6.91234 39.845 5.56234 42.875 1.27234 44.99L1.94734 45.95C6.80734 43.535 8.12734 39.935 8.12734 36.02H6.91234ZM2.00734 36.02V37.025H7.64734V36.02H2.00734ZM6.71734 39.38L1.33234 39.74L1.52734 40.85L6.71734 40.34V39.38ZM10.3173 34.595V48.17H11.5773V34.595H10.3173ZM11.2323 40.1V41.135H13.7373V40.1H11.2323ZM20.5762 39.74V40.775H23.1262V39.74H20.5762ZM15.4462 43.895V44.915H16.3162C18.4312 44.915 19.7212 44.87 21.2662 44.57L21.1462 43.55C19.6462 43.85 18.4012 43.895 16.3162 43.895H15.4462ZM15.4462 36.245V44.24H16.6312V37.25H20.4712V36.245H15.4462ZM16.2712 39.905V40.895H19.8562V39.905H16.2712ZM25.2562 34.61V48.17H26.4562V34.61H25.2562ZM22.5262 34.925V47.48H23.7112V34.925H22.5262ZM30.04 35.96V36.995H38.77V35.96H30.04ZM28.75 45.245V46.28H41.005V45.245H28.75ZM33.505 40.4V45.755H34.75V40.4H33.505ZM38.305 35.96V37.31C38.305 38.93 38.305 40.835 37.795 43.43L39.04 43.595C39.535 40.85 39.535 38.99 39.535 37.31V35.96H38.305ZM52.4188 34.595V48.185H53.6638V34.595H52.4188ZM43.3288 43.88V44.915H44.4538C46.7788 44.915 48.8188 44.825 51.2788 44.42L51.1438 43.4C48.7438 43.79 46.7188 43.88 44.4538 43.88H43.3288ZM43.2988 35.87V36.89H48.3088V39.695H43.3288V44.27H44.5738V40.715H49.5688V35.87H43.2988Z" fill="black"/>
<rect x="13" width="27" height="2.04545" rx="1.02273" fill="black"/>
<rect x="13" y="10.9091" width="27" height="2.04545" rx="1.02273" fill="black"/>
<rect x="13" y="21.8182" width="27" height="2.04545" rx="1.02273" fill="black"/>
</svg>