<svg width="42" height="56" viewBox="0 0 42 51" fill="none" xmlns="http://www.w3.org/2000/svg">
<path d="M11.3418 34.61V48.17H12.5418V34.61H11.3418ZM9.06176 40.13V41.15H11.6718V40.13H9.06176ZM8.26676 34.91V47.48H9.43676V34.91H8.26676ZM1.69676 36.245V44.075H2.94176V36.245H1.69676ZM1.69676 43.58V44.66H2.56676C4.02176 44.66 5.58176 44.585 7.42676 44.225L7.29176 43.145C5.52176 43.49 3.96176 43.58 2.56676 43.58H1.69676ZM22.0806 38.12V39.155H25.1406V38.12H22.0806ZM24.7506 34.61V42.695H25.9956V34.61H24.7506ZM21.5406 43.1C18.7356 43.1 17.0106 44.045 17.0106 45.635C17.0106 47.24 18.7356 48.155 21.5406 48.155C24.3306 48.155 26.0556 47.24 26.0556 45.635C26.0556 44.045 24.3306 43.1 21.5406 43.1ZM21.5406 44.075C23.5806 44.075 24.8256 44.645 24.8256 45.635C24.8256 46.61 23.5806 47.18 21.5406 47.18C19.5006 47.18 18.2556 46.61 18.2556 45.635C18.2556 44.645 19.5006 44.075 21.5406 44.075ZM18.3006 35.975V37.07C18.3006 39.02 16.9056 40.835 14.8956 41.57L15.5406 42.56C17.7906 41.72 19.3206 39.575 19.3206 37.07V35.975H18.3006ZM18.5406 35.975V37.07C18.5406 39.35 19.9956 41.39 22.2006 42.185L22.8306 41.195C20.8656 40.505 19.5456 38.825 19.5456 37.07V35.975H18.5406ZM15.2706 35.6V36.62H22.5156V35.6H15.2706ZM28.6494 45.41V46.445H40.9344V45.41H28.6494ZM34.1394 42.17V45.71H35.3844V42.17H34.1394ZM30.0894 35.57V42.5H39.4644V35.57H38.2344V37.985H31.3194V35.57H30.0894ZM31.3194 38.99H38.2344V41.48H31.3194V38.99Z" fill="black"/>
<path d="M11 2.7334C11 4.4934 11 17.6445 11 24.0001" stroke="black" stroke-width="3.5" stroke-linecap="round"/>
<path d="M6 4.93333V21.8M11.8333 12.2667H31M31 12.2667V2M31 12.2667V24M36 4.93333V21.8" stroke="black" stroke-width="3.5" stroke-linecap="round"/>
</svg>
