<svg width="32" height="56" viewBox="0 0 32 54" fill="none" xmlns="http://www.w3.org/2000/svg">
<path d="M12.551 23.7616C18.666 23.7616 23.602 18.7663 23.602 12.6308C23.602 6.4952 18.666 1.5 12.551 1.5C6.43597 1.5 1.5 6.4952 1.5 12.6308C1.5 18.7663 6.43597 23.7616 12.551 23.7616Z" fill="white" stroke="black" stroke-width="3"/>
<rect x="-0.0355094" y="-0.488415" width="11.9868" height="2.84659" rx="1.42329" transform="matrix(0.763404 0.645922 -0.661948 0.74955 22.052 18.0013)" fill="black" stroke="black" stroke-width="0.7"/>
<path d="M8.59117 38.48V39.005C8.59117 41.525 6.52117 43.49 3.08617 44.465L3.59617 45.44C7.49617 44.345 9.89617 41.9 9.89617 38.48H8.59117ZM3.79117 38.48V39.485H9.43117V38.48H3.79117ZM12.8512 37.61V45.35H14.0962V37.61H12.8512ZM9.91117 41.09V42.125H13.0912V41.09H9.91117ZM5.35117 45.92V50.99H14.0962V45.92H5.35117ZM12.8812 46.925V49.97H6.58117V46.925H12.8812ZM19.585 38.42V40.235C19.585 41.78 18.52 43.565 16.75 44.36L17.425 45.335C19.42 44.42 20.575 42.275 20.575 40.235V38.42H19.585ZM19.78 38.42V40.235C19.78 42.26 20.89 44.165 22.855 44.99L23.515 44.03C21.775 43.325 20.77 41.78 20.77 40.235V38.42H19.78ZM26.98 37.625V45.815H28.165V37.625H26.98ZM24.79 41.135V42.17H27.355V41.135H24.79ZM24.07 37.85V45.74H25.255V37.85H24.07ZM19.075 46.55V47.57H26.935V51.17H28.165V46.55H19.075Z" fill="black"/>
</svg>
